<?xml version="1.0" encoding="UTF-8"?> <svg xmlns="http://www.w3.org/2000/svg" xmlns:xlink="http://www.w3.org/1999/xlink" id="el_iMWY3nd5D" x="0px" y="0px" viewBox="0 0 450 450" style="enable-background:new 0 0 450 450;" xml:space="preserve"><style>@-webkit-keyframes el_izrYMU59zeS_Animation{90%{opacity: 0;}100%{opacity: 1;}0%{opacity: 0;}}@keyframes el_izrYMU59zeS_Animation{90%{opacity: 0;}100%{opacity: 1;}0%{opacity: 0;}}@-webkit-keyframes el_3Pm9rY3pll3_Animation{50%{opacity: 0;}60%{opacity: 1;}0%{opacity: 0;}100%{opacity: 1;}}@keyframes el_3Pm9rY3pll3_Animation{50%{opacity: 0;}60%{opacity: 1;}0%{opacity: 0;}100%{opacity: 1;}}@-webkit-keyframes el_yiEYpM9i7vK_Animation{60%{opacity: 0;}70%{opacity: 1;}0%{opacity: 0;}100%{opacity: 1;}}@keyframes el_yiEYpM9i7vK_Animation{60%{opacity: 0;}70%{opacity: 1;}0%{opacity: 0;}100%{opacity: 1;}}@-webkit-keyframes el_rQOJkSULMFb_Animation{30%{opacity: 0;}40%{opacity: 1;}0%{opacity: 0;}100%{opacity: 1;}}@keyframes el_rQOJkSULMFb_Animation{30%{opacity: 0;}40%{opacity: 1;}0%{opacity: 0;}100%{opacity: 1;}}@-webkit-keyframes el_51RJsFtHzM_Animation{70%{opacity: 0;}80%{opacity: 1;}0%{opacity: 0;}100%{opacity: 1;}}@keyframes el_51RJsFtHzM_Animation{70%{opacity: 0;}80%{opacity: 1;}0%{opacity: 0;}100%{opacity: 1;}}@-webkit-keyframes el_QJ5TbrGVQO_Animation{40%{opacity: 0;}50%{opacity: 1;}0%{opacity: 0;}100%{opacity: 1;}}@keyframes el_QJ5TbrGVQO_Animation{40%{opacity: 0;}50%{opacity: 1;}0%{opacity: 0;}100%{opacity: 1;}}@-webkit-keyframes el_AWkwjNH6T__Animation{80%{opacity: 0;}90%{opacity: 1;}0%{opacity: 0;}100%{opacity: 1;}}@keyframes el_AWkwjNH6T__Animation{80%{opacity: 0;}90%{opacity: 1;}0%{opacity: 0;}100%{opacity: 1;}}@-webkit-keyframes el_zFE4HS6-_x_Animation{0%{opacity: 0;}10%{opacity: 1;}100%{opacity: 1;}}@keyframes el_zFE4HS6-_x_Animation{0%{opacity: 0;}10%{opacity: 1;}100%{opacity: 1;}}@-webkit-keyframes el_BE_ca-Tff7_Animation{10%{opacity: 0;}20%{opacity: 1;}0%{opacity: 0;}100%{opacity: 1;}}@keyframes el_BE_ca-Tff7_Animation{10%{opacity: 0;}20%{opacity: 1;}0%{opacity: 0;}100%{opacity: 1;}}@-webkit-keyframes el_w1wgjgXDuF_Animation{20%{opacity: 0;}30%{opacity: 1;}0%{opacity: 0;}100%{opacity: 1;}}@keyframes el_w1wgjgXDuF_Animation{20%{opacity: 0;}30%{opacity: 1;}0%{opacity: 0;}100%{opacity: 1;}}#el_iMWY3nd5D *{-webkit-animation-duration: 3s;animation-duration: 3s;-webkit-animation-timing-function: cubic-bezier(0, 0, 1, 1);animation-timing-function: cubic-bezier(0, 0, 1, 1);}#el_KvXHG1YW5D{fill: #333333;}#el_HId31JUUxZ{fill: #333333;}#el_7DQdKkd8jH{fill: #9E9FAD;}#el_0mYvCp79pl{fill: #9E9FAD;}#el_pbl6hpOzsK{fill: #9E9FAD;}#el_MJ7SRlQ_XA{fill: #9E9FAD;}#el_yIymXwru6I{fill: #9E9FAD;}#el_cM7Hg3OTVH{fill: #692480;}#el_w1wgjgXDuF{fill: #E50751;-webkit-animation-name: el_w1wgjgXDuF_Animation;animation-name: el_w1wgjgXDuF_Animation;opacity: 1;}#el_BE_ca-Tff7{fill: #EA5E0B;-webkit-animation-name: el_BE_ca-Tff7_Animation;animation-name: el_BE_ca-Tff7_Animation;opacity: 1;}#el_zFE4HS6-_x{fill: #FAB82F;-webkit-animation-name: el_zFE4HS6-_x_Animation;animation-name: el_zFE4HS6-_x_Animation;opacity: 1;}#el_AWkwjNH6T_{fill: #22A23E;-webkit-animation-name: el_AWkwjNH6T__Animation;animation-name: el_AWkwjNH6T__Animation;opacity: 1;}#el_QJ5TbrGVQO{fill: #EA5E0B;-webkit-animation-name: el_QJ5TbrGVQO_Animation;animation-name: el_QJ5TbrGVQO_Animation;opacity: 1;}#el_51RJsFtHzM{fill: #37BCEE;-webkit-animation-name: el_51RJsFtHzM_Animation;animation-name: el_51RJsFtHzM_Animation;opacity: 1;}#el_rQOJkSULMFb{fill: #FAB82F;-webkit-animation-name: el_rQOJkSULMFb_Animation;animation-name: el_rQOJkSULMFb_Animation;opacity: 1;}#el_yiEYpM9i7vK{fill: #692480;-webkit-animation-name: el_yiEYpM9i7vK_Animation;animation-name: el_yiEYpM9i7vK_Animation;opacity: 1;}#el_3Pm9rY3pll3{fill: #E50751;-webkit-animation-name: el_3Pm9rY3pll3_Animation;animation-name: el_3Pm9rY3pll3_Animation;opacity: 1;}#el_izrYMU59zeS{fill: #65B331;-webkit-animation-name: el_izrYMU59zeS_Animation;animation-name: el_izrYMU59zeS_Animation;opacity: 1;}</style> <path d="M199.1,300.3c-1.6,0-2.8,1.3-2.8,2.8v44.8c0,1.6,0.8,3.8,1.8,5l15.3,19.1c1,1.2,5,4.4,11.7,4.4 c6.6,0,10.7-3.2,11.7-4.4l15.3-19.1c1-1.2,1.8-3.5,1.8-5v-44.7c0-1.6-1.3-2.8-2.8-2.8h-52V300.3z" id="el_KvXHG1YW5D"></path> <path d="M198.2,353.3l15.1,18.8c1,1.2,5,4.4,11.7,4.4c6.6,0,10.7-3.2,11.7-4.4l15.1-18.8H198.2z" id="el_HId31JUUxZ"></path> <path d="M211.1,369.3l2.2,2.8c1,1.2,5,4.4,11.7,4.4c6.6,0,10.7-3.2,11.7-4.4l2.2-2.8H211.1z" id="el_7DQdKkd8jH"></path> <g id="el_Q3VHoFVHy7"> <polygon points="196.2,320.2 253.8,321 253.8,317.1 196.2,316.4 " id="el_0mYvCp79pl"></polygon> <polygon points="196.2,328.1 253.8,328.8 253.8,324.9 196.2,324.2 " id="el_pbl6hpOzsK"></polygon> <polygon points="196.2,335.9 253.8,336.6 253.8,332.8 196.2,332 " id="el_MJ7SRlQ_XA"></polygon> <polygon points="196.2,343.7 253.8,344.5 253.8,340.6 196.2,339.9 " id="el_yIymXwru6I"></polygon> </g> <path id="el_cM7Hg3OTVH" d="M225.1,313.3c-21.9,0-30.8,0.3-37.8-7.9c-5.6-6.5-4.8-18.4-5.9-26.4c-1-7.8-4.3-13.7-8.2-20.4 c-10.6-18.1-21.5-34.9-21.5-56.8c0-10.1,2.1-19.8,5.8-28.6c3.7-8.8,9.1-16.7,15.8-23.4c6.7-6.7,14.6-12,23.4-15.8 c8.8-3.7,18.5-5.8,28.6-5.8s19.8,2.1,28.6,5.8c8.8,3.7,16.7,9.1,23.4,15.8c6.7,6.7,12,14.6,15.8,23.4c3.7,8.8,5.8,18.5,5.8,28.6 c0,21.9-10.9,38.6-21.5,56.8c-3.9,6.7-7.2,12.6-8.2,20.4c-1.1,8-0.3,19.9-5.9,26.4C255.9,313.6,247,313.3,225.1,313.3z"></path> <path id="el_w1wgjgXDuF" d="M288.6,201.8c0,35.1-28.5,63.5-63.5,63.5s-63.5-28.5-63.5-63.5s28.5-63.5,63.5-63.5 S288.6,166.7,288.6,201.8z"></path> <ellipse id="el_BE_ca-Tff7" cx="225" cy="201.9" rx="42.5" ry="42.5"></ellipse> <path id="el_zFE4HS6-_x" d="M250,201.8c0,13.7-11.1,24.9-24.9,24.9c-13.7,0-24.9-11.1-24.9-24.9 c0-13.7,11.1-24.9,24.9-24.9C238.8,177,250,188.1,250,201.8z"></path> <path id="el_AWkwjNH6T_" d="M349.6,198.2h-34.9c-2,0-3.7,1.6-3.7,3.7c0,2,1.6,3.7,3.7,3.7h34.9c2,0,3.7-1.6,3.7-3.7 S351.6,198.2,349.6,198.2z"></path> <path id="el_QJ5TbrGVQO" d="M139,201.8c0-2-1.6-3.7-3.7-3.7h-34.9c-2,0-3.7,1.6-3.7,3.7c0,2,1.6,3.7,3.7,3.7h35 C137.4,205.5,139,203.9,139,201.8z"></path> <path id="el_51RJsFtHzM" d="M288.6,142.1c0.9,0,1.9-0.4,2.6-1.1l24.7-24.7c1.4-1.4,1.4-3.8,0-5.2c-1.4-1.4-3.8-1.4-5.2,0 l-24.7,24.7c-1.4,1.4-1.4,3.8,0,5.2C286.6,141.7,287.6,142.1,288.6,142.1z"></path> <path id="el_rQOJkSULMFb" d="M159,262.7l-24.6,24.7c-1.4,1.4-1.4,3.8,0,5.2c0.7,0.7,1.7,1.1,2.6,1.1s1.9-0.4,2.6-1.1l24.7-24.7 c1.4-1.4,1.4-3.8,0-5.2C162.8,261.3,160.5,261.3,159,262.7z"></path> <path id="el_yiEYpM9i7vK" d="M225.1,73.5c-2,0-3.7,1.6-3.7,3.7v34.9c0,2,1.6,3.7,3.7,3.7c2,0,3.7-1.6,3.7-3.7V77.2 C228.8,75.2,227.1,73.5,225.1,73.5z"></path> <path id="el_3Pm9rY3pll3" d="M139.6,111.1c-1.4-1.4-3.8-1.4-5.2,0c-1.4,1.4-1.4,3.8,0,5.2l24.7,24.7c0.7,0.7,1.7,1.1,2.6,1.1 s1.9-0.4,2.6-1.1c1.4-1.4,1.4-3.8,0-5.2L139.6,111.1z"></path> <path id="el_izrYMU59zeS" d="M291.1,262.7c-1.4-1.4-3.8-1.4-5.2,0c-1.4,1.4-1.4,3.8,0,5.2l24.7,24.7 c0.7,0.7,1.7,1.1,2.6,1.1s1.9-0.4,2.6-1.1c1.4-1.4,1.4-3.8,0-5.2L291.1,262.7z"></path> </svg> 