<?xml version="1.0" encoding="utf-8"?>
<!-- Generator: Adobe Illustrator 23.0.5, SVG Export Plug-In . SVG Version: 6.00 Build 0)  -->
<svg version="1.1" id="Layer_1" xmlns="http://www.w3.org/2000/svg" xmlns:xlink="http://www.w3.org/1999/xlink" x="0px" y="0px"
	 viewBox="0 0 300 150" style="enable-background:new 0 0 300 150;" xml:space="preserve">
<style type="text/css">
	.st0{opacity:0.5;}
</style>
<g>
	<g class="st0">
		<path d="M40,49.7h8.4v51.1H40V49.7z M43.9,92.8h29.6v8.1H43.9V92.8z"/>
		<path d="M108.2,99c-2.8-1.6-4.9-3.8-6.4-6.6c-1.5-2.8-2.3-6.1-2.3-9.9V68c0-3.7,0.8-7,2.3-9.9c1.5-2.8,3.7-5.1,6.4-6.6
			c2.8-1.6,6-2.3,9.6-2.3c3.6,0,6.8,0.8,9.6,2.3c2.8,1.6,4.9,3.8,6.4,6.6c1.5,2.8,2.3,6.1,2.3,9.9v14.5c0,3.8-0.8,7-2.3,9.9
			c-1.5,2.8-3.7,5.1-6.4,6.6c-2.8,1.6-6,2.3-9.6,2.3C114.2,101.4,111,100.6,108.2,99z M122.9,91.8c1.5-0.8,2.6-2,3.4-3.6
			c0.8-1.6,1.2-3.4,1.2-5.4v-15c0-2-0.4-3.8-1.2-5.4c-0.8-1.6-1.9-2.8-3.4-3.6c-1.5-0.8-3.2-1.3-5.1-1.3c-1.9,0-3.6,0.4-5.1,1.3
			c-1.5,0.8-2.6,2-3.4,3.6c-0.8,1.6-1.2,3.4-1.2,5.4v15c0,2,0.4,3.8,1.2,5.4c0.8,1.6,1.9,2.8,3.4,3.6c1.5,0.8,3.2,1.3,5.1,1.3
			C119.8,93,121.4,92.6,122.9,91.8z"/>
		<path d="M202,72.8v9.5c0,3.8-0.8,7.1-2.3,10c-1.5,2.9-3.6,5.1-6.4,6.7s-5.9,2.4-9.6,2.4c-3.7,0-6.9-0.7-9.7-2.2s-5-3.6-6.5-6.3
			c-1.5-2.7-2.3-5.9-2.3-9.5V68.3c0-3.8,0.8-7.1,2.3-10s3.6-5.1,6.4-6.7s5.9-2.4,9.6-2.4c3,0,5.7,0.6,8.3,1.9c2.5,1.3,4.6,3,6.3,5.3
			c1.7,2.3,2.8,5,3.4,8h-9.1c-0.4-1.4-1-2.6-2-3.6c-0.9-1-2-1.8-3.2-2.3s-2.5-0.8-3.8-0.8c-1.9,0-3.6,0.4-5,1.3s-2.6,2.1-3.4,3.7
			c-0.8,1.6-1.2,3.5-1.2,5.6v15.1c0,1.9,0.4,3.6,1.2,5s2,2.6,3.4,3.3c1.5,0.8,3.2,1.2,5.2,1.2c1.9,0,3.6-0.4,5.1-1.2
			c1.5-0.8,2.6-2,3.4-3.6s1.2-3.5,1.2-5.6v-1.5h-9.1v-8.1H202z"/>
		<path d="M239.9,99c-2.8-1.6-4.9-3.8-6.4-6.6s-2.3-6.1-2.3-9.9V68c0-3.7,0.8-7,2.3-9.9s3.7-5.1,6.4-6.6c2.8-1.6,6-2.3,9.6-2.3
			s6.8,0.8,9.6,2.3c2.8,1.6,4.9,3.8,6.4,6.6s2.3,6.1,2.3,9.9v14.5c0,3.8-0.8,7-2.3,9.9s-3.7,5.1-6.4,6.6s-6,2.3-9.6,2.3
			S242.7,100.6,239.9,99z M254.6,91.8c1.5-0.8,2.6-2,3.4-3.6c0.8-1.6,1.2-3.4,1.2-5.4v-15c0-2-0.4-3.8-1.2-5.4
			c-0.8-1.6-1.9-2.8-3.4-3.6s-3.2-1.3-5.1-1.3s-3.6,0.4-5.1,1.3s-2.6,2-3.4,3.6c-0.8,1.6-1.2,3.4-1.2,5.4v15c0,2,0.4,3.8,1.2,5.4
			c0.8,1.6,1.9,2.8,3.4,3.6s3.2,1.3,5.1,1.3S253.1,92.6,254.6,91.8z"/>
	</g>
</g>
</svg>
